<mxfile host="65bd71144e">
    <diagram name="Page-1" id="13e1069c-82ec-6db2-03f1-153e76fe0fe0">
        <mxGraphModel dx="1358" dy="785" grid="1" gridSize="10" guides="1" tooltips="1" connect="1" arrows="1" fold="1" page="1" pageScale="1" pageWidth="1169" pageHeight="827" background="none" math="0" shadow="0">
            <root>
                <mxCell id="0"/>
                <mxCell id="1" parent="0"/>
                <mxCell id="7baba1c4bc27f4b0-2" value="Student" style="shape=umlLifeline;perimeter=lifelinePerimeter;whiteSpace=wrap;html=1;container=1;collapsible=0;recursiveResize=0;outlineConnect=0;rounded=1;shadow=0;comic=0;labelBackgroundColor=none;strokeWidth=1;fontFamily=Verdana;fontSize=12;align=center;" parent="1" vertex="1">
                    <mxGeometry x="240" y="80" width="100" height="700" as="geometry"/>
                </mxCell>
                <mxCell id="7baba1c4bc27f4b0-10" value="" style="html=1;points=[];perimeter=orthogonalPerimeter;rounded=0;shadow=0;comic=0;labelBackgroundColor=none;strokeWidth=1;fontFamily=Verdana;fontSize=12;align=center;" parent="7baba1c4bc27f4b0-2" vertex="1">
                    <mxGeometry x="45" y="120" width="10" height="270" as="geometry"/>
                </mxCell>
                <mxCell id="C1J5qVjQitO0o-85RTjs-9" value="" style="html=1;points=[];perimeter=orthogonalPerimeter;rounded=0;shadow=0;comic=0;labelBackgroundColor=none;strokeWidth=1;fontFamily=Verdana;fontSize=12;align=center;" parent="7baba1c4bc27f4b0-2" vertex="1">
                    <mxGeometry x="45" y="485" width="10" height="85" as="geometry"/>
                </mxCell>
                <mxCell id="C1J5qVjQitO0o-85RTjs-13" value="sendForApproval" style="html=1;verticalAlign=bottom;endArrow=block;labelBackgroundColor=none;fontFamily=Verdana;fontSize=12;edgeStyle=elbowEdgeStyle;elbow=vertical;" parent="7baba1c4bc27f4b0-2" target="7baba1c4bc27f4b0-4" edge="1">
                    <mxGeometry relative="1" as="geometry">
                        <mxPoint x="55" y="490" as="sourcePoint"/>
                        <mxPoint x="185" y="490" as="targetPoint"/>
                    </mxGeometry>
                </mxCell>
                <mxCell id="7baba1c4bc27f4b0-3" value="Lecture" style="shape=umlLifeline;perimeter=lifelinePerimeter;whiteSpace=wrap;html=1;container=1;collapsible=0;recursiveResize=0;outlineConnect=0;rounded=1;shadow=0;comic=0;labelBackgroundColor=none;strokeWidth=1;fontFamily=Verdana;fontSize=12;align=center;" parent="1" vertex="1">
                    <mxGeometry x="380" y="80" width="100" height="700" as="geometry"/>
                </mxCell>
                <mxCell id="7baba1c4bc27f4b0-13" value="" style="html=1;points=[];perimeter=orthogonalPerimeter;rounded=0;shadow=0;comic=0;labelBackgroundColor=none;strokeWidth=1;fontFamily=Verdana;fontSize=12;align=center;" parent="7baba1c4bc27f4b0-3" vertex="1">
                    <mxGeometry x="45" y="145" width="10" height="195" as="geometry"/>
                </mxCell>
                <mxCell id="nCV9oFC19NtIJFONkOhS-25" value="makeRegistrationMenu" style="html=1;verticalAlign=bottom;endArrow=block;labelBackgroundColor=none;fontFamily=Verdana;fontSize=12;edgeStyle=elbowEdgeStyle;elbow=vertical;exitX=0.7;exitY=1;exitDx=0;exitDy=0;exitPerimeter=0;entryX=-0.4;entryY=0.013;entryDx=0;entryDy=0;entryPerimeter=0;" parent="7baba1c4bc27f4b0-3" target="nCV9oFC19NtIJFONkOhS-24" edge="1">
                    <mxGeometry relative="1" as="geometry">
                        <mxPoint x="-85" y="380" as="sourcePoint"/>
                        <mxPoint x="63" y="380" as="targetPoint"/>
                    </mxGeometry>
                </mxCell>
                <mxCell id="7baba1c4bc27f4b0-4" value="Advisor" style="shape=umlLifeline;perimeter=lifelinePerimeter;whiteSpace=wrap;html=1;container=1;collapsible=0;recursiveResize=0;outlineConnect=0;rounded=1;shadow=0;comic=0;labelBackgroundColor=none;strokeWidth=1;fontFamily=Verdana;fontSize=12;align=center;" parent="1" vertex="1">
                    <mxGeometry x="680" y="80" width="100" height="700" as="geometry"/>
                </mxCell>
                <mxCell id="7baba1c4bc27f4b0-16" value="" style="html=1;points=[];perimeter=orthogonalPerimeter;rounded=0;shadow=0;comic=0;labelBackgroundColor=none;strokeWidth=1;fontFamily=Verdana;fontSize=12;align=center;" parent="7baba1c4bc27f4b0-4" vertex="1">
                    <mxGeometry x="45" y="485" width="10" height="40" as="geometry"/>
                </mxCell>
                <mxCell id="C1J5qVjQitO0o-85RTjs-22" value="rejectApplication" style="html=1;verticalAlign=bottom;endArrow=open;dashed=1;endSize=8;labelBackgroundColor=none;fontFamily=Verdana;fontSize=12;edgeStyle=elbowEdgeStyle;elbow=vertical;exitX=0.2;exitY=0.943;exitDx=0;exitDy=0;exitPerimeter=0;" parent="7baba1c4bc27f4b0-4" edge="1">
                    <mxGeometry x="0.0662" relative="1" as="geometry">
                        <mxPoint x="-380" y="527" as="targetPoint"/>
                        <Array as="points">
                            <mxPoint x="30" y="526.9949999999999"/>
                            <mxPoint x="160" y="556.9949999999999"/>
                            <mxPoint x="160" y="579.9949999999999"/>
                            <mxPoint x="160" y="579.9949999999999"/>
                        </Array>
                        <mxPoint x="47" y="525" as="sourcePoint"/>
                        <mxPoint as="offset"/>
                    </mxGeometry>
                </mxCell>
                <mxCell id="C1J5qVjQitO0o-85RTjs-30" value="" style="html=1;points=[];perimeter=orthogonalPerimeter;rounded=0;shadow=0;comic=0;labelBackgroundColor=none;strokeWidth=1;fontFamily=Verdana;fontSize=12;align=center;" parent="7baba1c4bc27f4b0-4" vertex="1">
                    <mxGeometry x="45" y="630" width="10" height="40" as="geometry"/>
                </mxCell>
                <mxCell id="7baba1c4bc27f4b0-6" value="Semester" style="shape=umlLifeline;perimeter=lifelinePerimeter;whiteSpace=wrap;html=1;container=1;collapsible=0;recursiveResize=0;outlineConnect=0;rounded=1;shadow=0;comic=0;labelBackgroundColor=none;strokeWidth=1;fontFamily=Verdana;fontSize=12;align=center;" parent="1" vertex="1">
                    <mxGeometry x="840" y="80" width="100" height="700" as="geometry"/>
                </mxCell>
                <mxCell id="C1J5qVjQitO0o-85RTjs-14" value="approveApplication" style="html=1;verticalAlign=bottom;endArrow=block;labelBackgroundColor=none;fontFamily=Verdana;fontSize=12;edgeStyle=elbowEdgeStyle;elbow=vertical;exitX=0.7;exitY=1;exitDx=0;exitDy=0;exitPerimeter=0;" parent="7baba1c4bc27f4b0-6" source="7baba1c4bc27f4b0-16" edge="1">
                    <mxGeometry relative="1" as="geometry">
                        <mxPoint x="-75" y="525" as="sourcePoint"/>
                        <mxPoint x="40" y="525" as="targetPoint"/>
                    </mxGeometry>
                </mxCell>
                <mxCell id="nCV9oFC19NtIJFONkOhS-18" value="" style="html=1;points=[];perimeter=orthogonalPerimeter;rounded=0;shadow=0;comic=0;labelBackgroundColor=none;strokeWidth=1;fontFamily=Verdana;fontSize=12;align=center;" parent="7baba1c4bc27f4b0-6" vertex="1">
                    <mxGeometry x="45" y="270" width="10" height="50" as="geometry"/>
                </mxCell>
                <mxCell id="nCV9oFC19NtIJFONkOhS-24" value="" style="html=1;points=[];perimeter=orthogonalPerimeter;rounded=0;shadow=0;comic=0;labelBackgroundColor=none;strokeWidth=1;fontFamily=Verdana;fontSize=12;align=center;" parent="7baba1c4bc27f4b0-6" vertex="1">
                    <mxGeometry x="45" y="380" width="10" height="150" as="geometry"/>
                </mxCell>
                <mxCell id="7baba1c4bc27f4b0-8" value="Menu" style="shape=umlLifeline;perimeter=lifelinePerimeter;whiteSpace=wrap;html=1;container=1;collapsible=0;recursiveResize=0;outlineConnect=0;rounded=1;shadow=0;comic=0;labelBackgroundColor=none;strokeWidth=1;fontFamily=Verdana;fontSize=12;align=center;" parent="1" vertex="1">
                    <mxGeometry x="100" y="80" width="100" height="700" as="geometry"/>
                </mxCell>
                <mxCell id="7baba1c4bc27f4b0-9" value="" style="html=1;points=[];perimeter=orthogonalPerimeter;rounded=0;shadow=0;comic=0;labelBackgroundColor=none;strokeWidth=1;fontFamily=Verdana;fontSize=12;align=center;" parent="7baba1c4bc27f4b0-8" vertex="1">
                    <mxGeometry x="45" y="100" width="10" height="470" as="geometry"/>
                </mxCell>
                <mxCell id="C1J5qVjQitO0o-85RTjs-1" value="menu" style="html=1;verticalAlign=bottom;endArrow=block;entryX=0;entryY=0;labelBackgroundColor=none;fontFamily=Verdana;fontSize=12;edgeStyle=elbowEdgeStyle;elbow=vertical;" parent="7baba1c4bc27f4b0-8" edge="1">
                    <mxGeometry relative="1" as="geometry">
                        <mxPoint x="-85" y="100" as="sourcePoint"/>
                        <mxPoint x="45" y="100" as="targetPoint"/>
                        <mxPoint as="offset"/>
                    </mxGeometry>
                </mxCell>
                <mxCell id="C1J5qVjQitO0o-85RTjs-8" value="" style="html=1;points=[];perimeter=orthogonalPerimeter;rounded=0;shadow=0;comic=0;labelBackgroundColor=none;strokeWidth=1;fontFamily=Verdana;fontSize=12;align=center;" parent="7baba1c4bc27f4b0-8" vertex="1">
                    <mxGeometry x="45" y="610" width="10" height="60" as="geometry"/>
                </mxCell>
                <mxCell id="C1J5qVjQitO0o-85RTjs-29" value="advisorMenu" style="html=1;verticalAlign=bottom;endArrow=block;labelBackgroundColor=none;fontFamily=Verdana;fontSize=12;edgeStyle=elbowEdgeStyle;elbow=vertical;" parent="7baba1c4bc27f4b0-8" target="7baba1c4bc27f4b0-4" edge="1">
                    <mxGeometry relative="1" as="geometry">
                        <mxPoint x="55" y="629.5" as="sourcePoint"/>
                        <mxPoint x="185" y="629.5" as="targetPoint"/>
                    </mxGeometry>
                </mxCell>
                <mxCell id="7baba1c4bc27f4b0-11" value="studentLogin" style="html=1;verticalAlign=bottom;endArrow=block;entryX=0;entryY=0;labelBackgroundColor=none;fontFamily=Verdana;fontSize=12;edgeStyle=elbowEdgeStyle;elbow=vertical;" parent="1" source="7baba1c4bc27f4b0-9" target="7baba1c4bc27f4b0-10" edge="1">
                    <mxGeometry relative="1" as="geometry">
                        <mxPoint x="220" y="190" as="sourcePoint"/>
                    </mxGeometry>
                </mxCell>
                <mxCell id="7baba1c4bc27f4b0-14" value="makeRegistrationMenu" style="html=1;verticalAlign=bottom;endArrow=block;entryX=0;entryY=0;labelBackgroundColor=none;fontFamily=Verdana;fontSize=12;edgeStyle=elbowEdgeStyle;elbow=vertical;" parent="1" source="7baba1c4bc27f4b0-10" target="7baba1c4bc27f4b0-13" edge="1">
                    <mxGeometry relative="1" as="geometry">
                        <mxPoint x="370" y="200" as="sourcePoint"/>
                    </mxGeometry>
                </mxCell>
                <mxCell id="nCV9oFC19NtIJFONkOhS-1" value="LectureSession" style="shape=umlLifeline;perimeter=lifelinePerimeter;whiteSpace=wrap;html=1;container=1;collapsible=0;recursiveResize=0;outlineConnect=0;rounded=1;shadow=0;comic=0;labelBackgroundColor=none;strokeWidth=1;fontFamily=Verdana;fontSize=12;align=center;" parent="1" vertex="1">
                    <mxGeometry x="520" y="80" width="100" height="700" as="geometry"/>
                </mxCell>
                <mxCell id="nCV9oFC19NtIJFONkOhS-17" value="" style="html=1;points=[];perimeter=orthogonalPerimeter;rounded=0;shadow=0;comic=0;labelBackgroundColor=none;strokeWidth=1;fontFamily=Verdana;fontSize=12;align=center;" parent="nCV9oFC19NtIJFONkOhS-1" vertex="1">
                    <mxGeometry x="45" y="230" width="10" height="40" as="geometry"/>
                </mxCell>
                <mxCell id="nCV9oFC19NtIJFONkOhS-14" value="setLecture" style="html=1;verticalAlign=bottom;endArrow=block;entryX=0;entryY=0;labelBackgroundColor=none;fontFamily=Verdana;fontSize=12;edgeStyle=elbowEdgeStyle;elbow=vertical;" parent="nCV9oFC19NtIJFONkOhS-1" edge="1">
                    <mxGeometry relative="1" as="geometry">
                        <mxPoint x="-85" y="230" as="sourcePoint"/>
                        <mxPoint x="45" y="230.00000000000023" as="targetPoint"/>
                    </mxGeometry>
                </mxCell>
                <mxCell id="nCV9oFC19NtIJFONkOhS-8" value="Transcript" style="shape=umlLifeline;perimeter=lifelinePerimeter;whiteSpace=wrap;html=1;container=1;collapsible=0;recursiveResize=0;outlineConnect=0;rounded=1;shadow=0;comic=0;labelBackgroundColor=none;strokeWidth=1;fontFamily=Verdana;fontSize=12;align=center;" parent="1" vertex="1">
                    <mxGeometry x="1000" y="80" width="100" height="700" as="geometry"/>
                </mxCell>
                <mxCell id="nCV9oFC19NtIJFONkOhS-9" value="" style="html=1;points=[];perimeter=orthogonalPerimeter;rounded=0;shadow=0;comic=0;labelBackgroundColor=none;strokeWidth=1;fontFamily=Verdana;fontSize=12;align=center;" parent="nCV9oFC19NtIJFONkOhS-8" vertex="1">
                    <mxGeometry x="45" y="520" width="10" height="40" as="geometry"/>
                </mxCell>
                <mxCell id="nCV9oFC19NtIJFONkOhS-10" value="addSemester" style="html=1;verticalAlign=bottom;endArrow=block;labelBackgroundColor=none;fontFamily=Verdana;fontSize=12;edgeStyle=elbowEdgeStyle;elbow=vertical;" parent="nCV9oFC19NtIJFONkOhS-8" edge="1">
                    <mxGeometry relative="1" as="geometry">
                        <mxPoint x="-100" y="525" as="sourcePoint"/>
                        <mxPoint x="40" y="525" as="targetPoint"/>
                    </mxGeometry>
                </mxCell>
                <mxCell id="nCV9oFC19NtIJFONkOhS-11" value="" style="html=1;points=[];perimeter=orthogonalPerimeter;rounded=0;shadow=0;comic=0;labelBackgroundColor=none;strokeWidth=1;fontFamily=Verdana;fontSize=12;align=center;" parent="nCV9oFC19NtIJFONkOhS-8" vertex="1">
                    <mxGeometry x="45" y="160" width="10" height="40" as="geometry"/>
                </mxCell>
                <mxCell id="nCV9oFC19NtIJFONkOhS-12" value="setListOfSemester" style="html=1;verticalAlign=bottom;endArrow=block;entryX=0;entryY=0;labelBackgroundColor=none;fontFamily=Verdana;fontSize=12;edgeStyle=elbowEdgeStyle;elbow=vertical;" parent="nCV9oFC19NtIJFONkOhS-8" edge="1">
                    <mxGeometry relative="1" as="geometry">
                        <mxPoint x="-560" y="160" as="sourcePoint"/>
                        <mxPoint x="45" y="160.00000000000023" as="targetPoint"/>
                    </mxGeometry>
                </mxCell>
                <mxCell id="nCV9oFC19NtIJFONkOhS-15" value="getListOfSemester" style="html=1;verticalAlign=bottom;endArrow=open;dashed=1;endSize=8;labelBackgroundColor=none;fontFamily=Verdana;fontSize=12;edgeStyle=elbowEdgeStyle;elbow=vertical;" parent="1" source="nCV9oFC19NtIJFONkOhS-8" edge="1">
                    <mxGeometry x="0.0662" relative="1" as="geometry">
                        <mxPoint x="440" y="280" as="targetPoint"/>
                        <Array as="points">
                            <mxPoint x="810" y="280"/>
                            <mxPoint x="1000" y="271.9949999999999"/>
                            <mxPoint x="1130" y="301.9949999999999"/>
                            <mxPoint x="1130" y="324.9949999999999"/>
                            <mxPoint x="1130" y="324.9949999999999"/>
                        </Array>
                        <mxPoint x="1017" y="270" as="sourcePoint"/>
                        <mxPoint as="offset"/>
                    </mxGeometry>
                </mxCell>
                <mxCell id="nCV9oFC19NtIJFONkOhS-21" value="setListOfLecturesTaken" style="html=1;verticalAlign=bottom;endArrow=block;labelBackgroundColor=none;fontFamily=Verdana;fontSize=12;edgeStyle=elbowEdgeStyle;elbow=vertical;" parent="1" edge="1">
                    <mxGeometry relative="1" as="geometry">
                        <mxPoint x="580" y="350" as="sourcePoint"/>
                        <mxPoint x="880" y="350" as="targetPoint"/>
                    </mxGeometry>
                </mxCell>
                <mxCell id="nCV9oFC19NtIJFONkOhS-22" value="getListOfLecturesTaken" style="html=1;verticalAlign=bottom;endArrow=open;dashed=1;endSize=8;labelBackgroundColor=none;fontFamily=Verdana;fontSize=12;edgeStyle=elbowEdgeStyle;elbow=vertical;" parent="1" source="7baba1c4bc27f4b0-6" edge="1">
                    <mxGeometry x="0.0662" relative="1" as="geometry">
                        <mxPoint x="440" y="400.5" as="targetPoint"/>
                        <Array as="points">
                            <mxPoint x="670" y="400"/>
                            <mxPoint x="860" y="391.9949999999999"/>
                            <mxPoint x="990" y="421.9949999999999"/>
                            <mxPoint x="990" y="444.9949999999999"/>
                            <mxPoint x="990" y="444.9949999999999"/>
                        </Array>
                        <mxPoint x="770" y="400.5" as="sourcePoint"/>
                        <mxPoint as="offset"/>
                    </mxGeometry>
                </mxCell>
                <mxCell id="nCV9oFC19NtIJFONkOhS-23" value="scheduleMenu" style="html=1;verticalAlign=bottom;endArrow=open;dashed=1;endSize=8;labelBackgroundColor=none;fontFamily=Verdana;fontSize=12;edgeStyle=elbowEdgeStyle;elbow=vertical;" parent="1" source="7baba1c4bc27f4b0-3" edge="1">
                    <mxGeometry x="0.0662" relative="1" as="geometry">
                        <mxPoint x="300" y="420" as="targetPoint"/>
                        <Array as="points">
                            <mxPoint x="350" y="420"/>
                            <mxPoint x="540" y="411.9949999999999"/>
                            <mxPoint x="670" y="441.9949999999999"/>
                            <mxPoint x="670" y="464.9949999999999"/>
                            <mxPoint x="670" y="464.9949999999999"/>
                        </Array>
                        <mxPoint x="390" y="420" as="sourcePoint"/>
                        <mxPoint as="offset"/>
                    </mxGeometry>
                </mxCell>
                <mxCell id="nCV9oFC19NtIJFONkOhS-26" value="transcriptMenu" style="html=1;verticalAlign=bottom;endArrow=open;dashed=1;endSize=8;labelBackgroundColor=none;fontFamily=Verdana;fontSize=12;edgeStyle=elbowEdgeStyle;elbow=vertical;" parent="1" edge="1">
                    <mxGeometry x="0.0662" relative="1" as="geometry">
                        <mxPoint x="300" y="640" as="targetPoint"/>
                        <Array as="points">
                            <mxPoint x="810" y="640"/>
                            <mxPoint x="1000" y="631.9949999999999"/>
                            <mxPoint x="1130" y="661.9949999999999"/>
                            <mxPoint x="1130" y="684.9949999999999"/>
                            <mxPoint x="1130" y="684.9949999999999"/>
                        </Array>
                        <mxPoint x="1049.5" y="640" as="sourcePoint"/>
                        <mxPoint as="offset"/>
                    </mxGeometry>
                </mxCell>
            </root>
        </mxGraphModel>
    </diagram>
</mxfile>